# xmcd
#
# Track frame offsets: 
#        150
#        23247
#        46257
#        70847
#        86681
#        106644
#        128358
#        150501
#        168649
#        196866
#        219998
#        243821
#        263958
#        285185
#        315497
#        339766
#
# Disc length: 4788 seconds
#
# Revision: 1
# Processed by: cddbd v1.5.2PL0 Copyright (c) Steve Scherf et al.
# Submitted via: ExactAudioCopy v1.3
#
DISCID=c212b210
DTITLE=Various Artist - Akella Presents - Modern Electric Blues - vol.16  CD2
DTITLE=New!
DYEAR=2013
DGENRE=Blues
TTITLE0=SCOTT ELLISON - Loaded Gun Tonight
TTITLE1=MICKY MOODY - Get Off My Back
TTITLE2=GUITAR SHORTY - Coffe and Cigarettes
TTITLE3=ERIC BURDON - Feeling Blue
TTITLE4=GURF MORLIX - Diamonds to Dust
TTITLE5=PAUL CAMILLERI - When The Night Comes
TTITLE6=GURF MORLIX - He Can't Do It
TTITLE7=VARGAS BLUES BAND - How Verso Are You
TTITLE8=BIG MIKE GRIFFIN - He Can't Do It
TTITLE9=RUDY ROTTA - St.James Infirmery
TTITLE10=PRESTON SHANNON - The Clock
TTITLE11=The JIMI VINCENT BAND - Your man
TTITLE12=BLEU JACKSON - 500% More Man
TTITLE13=The BLUES NOTIONS - Choice Of Poisons
TTITLE14=JIM SUHLER and MONKEY BEAT - Ain't Comin' Home Tonight
TTITLE15=ELVIN BISHOP - Come On In This House
EXTD=
EXTT0=
EXTT1=
EXTT2=
EXTT3=
EXTT4=
EXTT5=
EXTT6=
EXTT7=
EXTT8=
EXTT9=
EXTT10=
EXTT11=
EXTT12=
EXTT13=
EXTT14=
EXTT15=
PLAYORDER=
